<svg width="147" height="37" viewBox="0 0 147 37" fill="none" xmlns="http://www.w3.org/2000/svg">
<path d="M30.7223 5.63559L23.7788 12.5808C25.3275 14.1299 26.179 16.1849 26.179 18.3685C26.179 20.5521 25.3275 22.607 23.7788 24.1561C20.587 27.3486 15.3951 27.3486 12.2062 24.1561C10.2889 22.2383 7.17998 22.2383 5.26264 24.1561C3.34531 26.0739 3.34531 29.1835 5.26264 31.1013C8.77156 34.6111 13.3834 36.3688 17.9925 36.3688C22.6015 36.3688 27.2134 34.6139 30.7223 31.1013C34.1255 27.6973 36 23.1758 36 18.3685C36 13.5611 34.1255 9.03674 30.7223 5.63559Z" fill="#F8F7FB"/>
<path d="M30.7223 5.63558C23.7045 -1.38679 12.2805 -1.38679 5.26269 5.63558C5.24555 5.65273 5.23126 5.67274 5.21412 5.68989C-1.75514 12.7123 -1.738 24.1018 5.26555 31.1042C4.30546 30.1467 3.82541 28.8891 3.82541 27.6316C3.82541 26.374 4.30546 25.1164 5.26555 24.159C7.18288 22.2412 10.2918 22.2412 12.2091 24.159C9.01735 20.9665 9.01735 15.7733 12.2091 12.5836C15.4008 9.39113 20.5928 9.39113 23.7817 12.5836C25.699 14.5014 28.8079 14.5014 30.7252 12.5836C32.6425 10.6658 32.6425 7.55623 30.7252 5.63844L30.7223 5.63558Z" fill="#32365D"/>
<path d="M47.386 10.4646H40V5.41589H60.4763V10.4646H53.0902V31.3217H47.386V10.4646Z" fill="#4B405A"/>
<path d="M68.4365 5.41589H73.1526L84.4153 31.3217H77.9795L75.7497 25.8326H65.6937L63.5368 31.3217H57.2467L68.4365 5.41589ZM70.6313 12.9526L67.4863 21.0026H73.8113L70.6313 12.9526Z" fill="#4B405B"/>
<path d="M83.5787 18.3688C83.5787 16.295 83.9256 14.4167 84.6222 12.7338C85.3188 11.0509 86.2866 9.6188 87.5282 8.43463C88.7729 7.25046 90.2448 6.34338 91.9529 5.70755C93.658 5.07463 95.5235 4.75671 97.5463 4.75671C99.5692 4.75671 101.435 5.07463 103.14 5.70755C104.845 6.34338 106.323 7.25046 107.564 8.43463C108.809 9.6188 109.777 11.0509 110.47 12.7338C111.164 14.4167 111.514 16.295 111.514 18.3688C111.514 20.4425 111.167 22.3209 110.47 24.0038C109.777 25.6867 108.806 27.1217 107.564 28.303C106.323 29.4871 104.845 30.3942 103.14 31.03C101.435 31.663 99.5692 31.9809 97.5463 31.9809C95.5235 31.9809 93.658 31.663 91.9529 31.03C90.2448 30.3971 88.7729 29.4871 87.5282 28.303C86.2836 27.1188 85.3159 25.6867 84.6222 24.0038C83.9285 22.3209 83.5787 20.4425 83.5787 18.3688ZM89.5045 18.3688C89.5045 19.588 89.6939 20.705 90.0699 21.7171C90.4488 22.7292 90.991 23.6071 91.6964 24.3509C92.4017 25.0946 93.2499 25.675 94.238 26.0892C95.2261 26.5034 96.3279 26.7105 97.5463 26.7105C98.7647 26.7105 99.8694 26.5034 100.855 26.0892C101.843 25.675 102.688 25.0946 103.396 24.3509C104.102 23.6071 104.647 22.7292 105.023 21.7171C105.402 20.705 105.588 19.588 105.588 18.3688C105.588 17.1496 105.399 16.0646 105.023 15.038C104.644 14.0142 104.102 13.1305 103.396 12.3867C102.688 11.643 101.843 11.0625 100.855 10.6484C99.8665 10.2342 98.7647 10.0271 97.5463 10.0271C96.3279 10.0271 95.2232 10.2342 94.238 10.6484C93.2499 11.0625 92.4046 11.643 91.6964 12.3867C90.9881 13.1305 90.4459 14.0142 90.0699 15.038C89.691 16.0617 89.5045 17.173 89.5045 18.3688Z" fill="#4B405B"/>
<path d="M136.447 21.3321C136.447 22.8692 136.214 24.2838 135.753 25.5759C135.29 26.868 134.602 27.9909 133.687 28.9417C132.771 29.8926 131.632 30.6363 130.267 31.173C128.903 31.7096 127.329 31.978 125.551 31.978C123.773 31.978 122.162 31.7096 120.797 31.173C119.433 30.6363 118.294 29.8926 117.378 28.9417C116.463 27.9909 115.775 26.868 115.312 25.5759C114.848 24.2838 114.618 22.8692 114.618 21.3321V5.41589H120.322V21.1134C120.322 21.9184 120.451 22.6621 120.707 23.3446C120.964 24.0271 121.322 24.6192 121.786 25.118C122.249 25.6196 122.803 26.0076 123.45 26.2876C124.094 26.5676 124.796 26.7076 125.551 26.7076C126.306 26.7076 127.003 26.5676 127.635 26.2876C128.268 26.0076 128.819 25.6167 129.282 25.118C129.746 24.6192 130.104 24.0271 130.361 23.3446C130.617 22.6621 130.746 21.9184 130.746 21.1134V5.41589H136.45V21.3321H136.447Z" fill="#39449C"/>
<path d="M141.04 5.41589H146.745V31.3217H141.04V5.41589Z" fill="#39449C"/>
</svg>
